<svg xmlns="http://www.w3.org/2000/svg" viewBox="30.33 27.83 191.59 191.59" width="191.59" height="191.59" xmlns:c2pa="http://c2pa.org/manifest"><metadata><c2pa:manifest>AAAWgmp1bWIAAAAeanVtZGMycGEAEQAQgAAAqgA4m3EDYzJwYQAAABZcanVtYgAAAEdqdW1kYzJtYQARABCAAACqADibcQN1cm46YzJwYTpkOGM1NzQxYS00N2Q3LTQ2ZTYtOTZlNi03OTFiMTkyYThkMDMAAAADl2p1bWIAAAApanVtZGMyYXMAEQAQgAAAqgA4m3EDYzJwYS5hc3NlcnRpb25zAAAAALxqdW1iAAAARGp1bWRjYm9yABEAEIAAAKoAOJtxE2MycGEuaW5ncmVkaWVudC52MwAAAAAYYzJzaFFeL0It1gTw0V6rtA2IYIoAAABwY2JvcqNpZGM6Zm9ybWF0bWltYWdlL3N2Zyt4bWxqaW5zdGFuY2VJRHgseG1wOmlpZDozMjFjYzE5Yi0xMzNjLTQ5ZDgtOTA3OS01OWQ0YmUwNGQ3NTFscmVsYXRpb25zaGlwaHBhcmVudE9mAAAB4mp1bWIAAABBanVtZGNib3IAEQAQgAAAqgA4m3ETYzJwYS5hY3Rpb25zLnYyAAAAABhjMnNotESPkXHeWZJ/SnKhf/D9/QAAAZljYm9yomdhY3Rpb25zgqJmYWN0aW9ua2MycGEub3BlbmVkanBhcmFtZXRlcnOha2luZ3JlZGllbnRzgaJjdXJseC1zZWxmI2p1bWJmPWMycGEuYXNzZXJ0aW9ucy9jMnBhLmluZ3JlZGllbnQudjNkaGFzaFggFJPIifO6QY2XX5hNQN56QwSCFdRI/gD2rhrj02dzx46kZmFjdGlvbngdY29tLmFudGhyb3BpYy5jbGF1ZGUucHJvdmlkZWRqcGFyYW1ldGVyc6F4H2NvbS5hbnRocm9waWMub3JpZ2luLWNvbmZpZGVuY2VndW5rbm93bmtkZXNjcmlwdGlvbnhmQ2xhdWRlIHByb3ZpZGVkIHRoaXMgZmlsZSBhdCB0aGUgcmVxdWVzdCBvZiBhIHVzZXIgYW5kIG1heSBoYXZlIGNyZWF0ZWQgb3IgbW9kaWZpZWQgdGhlIGZpbGUgY29udGVudHMubXNvZnR3YXJlQWdlbnShZG5hbWVmQ2xhdWRlcmFsbEFjdGlvbnNJbmNsdWRlZPUAAADIanVtYgAAAEBqdW1kY2JvcgARABCAAACqADibcRNjMnBhLmhhc2guZGF0YQAAAAAYYzJzaGHuEw3DCPuokUaUV6T0SooAAACAY2JvcqVjYWxnZnNoYTI1NmNwYWRNAAAAAAAAAAAAAAAAAGRoYXNoWCDLgqlsm0CtFou99ceSvydhdN0B1lANJurmJDIcy2raT2RuYW1lbmp1bWJmIG1hbmlmZXN0amV4Y2x1c2lvbnOBomVzdGFydBiqZmxlbmd0aBkeBAAAAj5qdW1iAAAAJ2p1bWRjMmNsABEAEIAAAKoAOJtxA2MycGEuY2xhaW0udjIAAAACD2Nib3KlY2FsZ2ZzaGEyNTZpc2lnbmF0dXJleE1zZWxmI2p1bWJmPS9jMnBhL3VybjpjMnBhOmQ4YzU3NDFhLTQ3ZDctNDZlNi05NmU2LTc5MWIxOTJhOGQwMy9jMnBhLnNpZ25hdHVyZWppbnN0YW5jZUlEeCx4bXA6aWlkOjkzOGUxODhjLTA5NzAtNDU4Yy05NjQxLTI0MzY2MzZlNmZjY3JjcmVhdGVkX2Fzc2VydGlvbnODomN1cmx4LXNlbGYjanVtYmY9YzJwYS5hc3NlcnRpb25zL2MycGEuaW5ncmVkaWVudC52M2RoYXNoWCAUk8iJ87pBjZdfmE1A3npDBIIV1Ej+APauGuPTZ3PHjqJjdXJseCpzZWxmI2p1bWJmPWMycGEuYXNzZXJ0aW9ucy9jMnBhLmFjdGlvbnMudjJkaGFzaFgg9m6me3WmrDEeHSoNLEIxZf72fjMrqWqQr1o8wyN4nBqiY3VybHgpc2VsZiNqdW1iZj1jMnBhLmFzc2VydGlvbnMvYzJwYS5oYXNoLmRhdGFkaGFzaFggIWy3VydlKYsicLwfhl6q2DG/L4ACzu43sruqmJtT6kh0Y2xhaW1fZ2VuZXJhdG9yX2luZm+jZG5hbWVvQW50aHJvcGljIEZpbGVzZ3ZlcnNpb25lMS4wLjBrc3BlY1ZlcnNpb25lMi40LjAAABA4anVtYgAAAChqdW1kYzJjcwARABCAAACqADibcQNjMnBhLnNpZ25hdHVyZQAAABAIY2JvctKEWQISogEmGCFZAgowggIGMIIBjaADAgECAhRA5aAK7sI50L64g/oGQgU9Z1UTADAKBggqhkjOPQQDAzBJMRcwFQYDVQQKEw5BbnRocm9waWMsIFBCQzEuMCwGA1UEAxMlQW50aHJvcGljIENvbnRlbnQgQ3JlZGVudGlhbHMgUm9vdCBDQTAeFw0yNjA4MDcxODQzNTZaFw0yODA4MDYxOTQzNTZaMEQxFzAVBgNVBAoTDkFudGhyb3BpYywgUEJDMSkwJwYDVQQDEyBBbnRocm9waWMgQ2xhdWRlIENvbnRlbnQgU2lnbmluZzBZMBMGByqGSM49AgEGCCqGSM49AwEHA0IABJh6CmvLUBgFFNU0vUKlOVtE6djd17L5SuwX0LemFisBM3dkd/3cyjxFA3Qo5S46fX0/ihY0VZ7mfb9KF703t5OjWDBWMA4GA1UdDwEB/wQEAwIHgDAVBgNVHSUEDjAMBgorBgEEAYPoXgIBMAwGA1UdEwEB/wQCMAAwHwYDVR0jBBgwFoAUzlHiBIFOZFsj+OPEz5o+nMHXXMIwCgYIKoZIzj0EAwMDZwAwZAIwMXMdFJ4BetLLVY7ORuE9noqbbAZOZn/aArXyTwFAZfKrPzxF2vPoJNf1+UCdg1XGAjBwX1zd9WGqYkqmL5SFqw1QySjr1zJfpJM9+1rdDwSPLMOPOjKuiXjoU/pUUeG9RwmhY3BhZFkNngAAAAAAAAAAAAAAAAAAAAAAAAAAAAAAAAAAAAAAAAAAAAAAAAAAAAAAAAAAAAAAAAAAAAAAAAAAAAAAAAAAAAAAAAAAAAAAAAAAAAAAAAAAAAAAAAAAAAAAAAAAAAAAAAAAAAAAAAAAAAAAAAAAAAAAAAAAAAAAAAAAAAAAAAAAAAAAAAAAAAAAAAAAAAAAAAAAAAAAAAAAAAAAAAAAAAAAAAAAAAAAAAAAAAAAAAAAAAAAAAAAAAAAAAAAAAAAAAAAAAAAAAAAAAAAAAAAAAAAAAAAAAAAAAAAAAAAAAAAAAAAAAAAAAAAAAAAAAAAAAAAAAAAAAAAAAAAAAAAAAAAAAAAAAAAAAAAAAAAAAAAAAAAAAAAAAAAAAAAAAAAAAAAAAAAAAAAAAAAAAAAAAAAAAAAAAAAAAAAAAAAAAAAAAAAAAAAAAAAAAAAAAAAAAAAAAAAAAAAAAAAAAAAAAAAAAAAAAAAAAAAAAAAAAAAAAAAAAAAAAAAAAAAAAAAAAAAAAAAAAAAAAAAAAAAAAAAAAAAAAAAAAAAAAAAAAAAAAAAAAAAAAAAAAAAAAAAAAAAAAAAAAAAAAAAAAAAAAAAAAAAAAAAAAAAAAAAAAAAAAAAAAAAAAAAAAAAAAAAAAAAAAAAAAAAAAAAAAAAAAAAAAAAAAAAAAAAAAAAAAAAAAAAAAAAAAAAAAAAAAAAAAAAAAAAAAAAAAAAAAAAAAAAAAAAAAAAAAAAAAAAAAAAAAAAAAAAAAAAAAAAAAAAAAAAAAAAAAAAAAAAAAAAAAAAAAAAAAAAAAAAAAAAAAAAAAAAAAAAAAAAAAAAAAAAAAAAAAAAAAAAAAAAAAAAAAAAAAAAAAAAAAAAAAAAAAAAAAAAAAAAAAAAAAAAAAAAAAAAAAAAAAAAAAAAAAAAAAAAAAAAAAAAAAAAAAAAAAAAAAAAAAAAAAAAAAAAAAAAAAAAAAAAAAAAAAAAAAAAAAAAAAAAAAAAAAAAAAAAAAAAAAAAAAAAAAAAAAAAAAAAAAAAAAAAAAAAAAAAAAAAAAAAAAAAAAAAAAAAAAAAAAAAAAAAAAAAAAAAAAAAAAAAAAAAAAAAAAAAAAAAAAAAAAAAAAAAAAAAAAAAAAAAAAAAAAAAAAAAAAAAAAAAAAAAAAAAAAAAAAAAAAAAAAAAAAAAAAAAAAAAAAAAAAAAAAAAAAAAAAAAAAAAAAAAAAAAAAAAAAAAAAAAAAAAAAAAAAAAAAAAAAAAAAAAAAAAAAAAAAAAAAAAAAAAAAAAAAAAAAAAAAAAAAAAAAAAAAAAAAAAAAAAAAAAAAAAAAAAAAAAAAAAAAAAAAAAAAAAAAAAAAAAAAAAAAAAAAAAAAAAAAAAAAAAAAAAAAAAAAAAAAAAAAAAAAAAAAAAAAAAAAAAAAAAAAAAAAAAAAAAAAAAAAAAAAAAAAAAAAAAAAAAAAAAAAAAAAAAAAAAAAAAAAAAAAAAAAAAAAAAAAAAAAAAAAAAAAAAAAAAAAAAAAAAAAAAAAAAAAAAAAAAAAAAAAAAAAAAAAAAAAAAAAAAAAAAAAAAAAAAAAAAAAAAAAAAAAAAAAAAAAAAAAAAAAAAAAAAAAAAAAAAAAAAAAAAAAAAAAAAAAAAAAAAAAAAAAAAAAAAAAAAAAAAAAAAAAAAAAAAAAAAAAAAAAAAAAAAAAAAAAAAAAAAAAAAAAAAAAAAAAAAAAAAAAAAAAAAAAAAAAAAAAAAAAAAAAAAAAAAAAAAAAAAAAAAAAAAAAAAAAAAAAAAAAAAAAAAAAAAAAAAAAAAAAAAAAAAAAAAAAAAAAAAAAAAAAAAAAAAAAAAAAAAAAAAAAAAAAAAAAAAAAAAAAAAAAAAAAAAAAAAAAAAAAAAAAAAAAAAAAAAAAAAAAAAAAAAAAAAAAAAAAAAAAAAAAAAAAAAAAAAAAAAAAAAAAAAAAAAAAAAAAAAAAAAAAAAAAAAAAAAAAAAAAAAAAAAAAAAAAAAAAAAAAAAAAAAAAAAAAAAAAAAAAAAAAAAAAAAAAAAAAAAAAAAAAAAAAAAAAAAAAAAAAAAAAAAAAAAAAAAAAAAAAAAAAAAAAAAAAAAAAAAAAAAAAAAAAAAAAAAAAAAAAAAAAAAAAAAAAAAAAAAAAAAAAAAAAAAAAAAAAAAAAAAAAAAAAAAAAAAAAAAAAAAAAAAAAAAAAAAAAAAAAAAAAAAAAAAAAAAAAAAAAAAAAAAAAAAAAAAAAAAAAAAAAAAAAAAAAAAAAAAAAAAAAAAAAAAAAAAAAAAAAAAAAAAAAAAAAAAAAAAAAAAAAAAAAAAAAAAAAAAAAAAAAAAAAAAAAAAAAAAAAAAAAAAAAAAAAAAAAAAAAAAAAAAAAAAAAAAAAAAAAAAAAAAAAAAAAAAAAAAAAAAAAAAAAAAAAAAAAAAAAAAAAAAAAAAAAAAAAAAAAAAAAAAAAAAAAAAAAAAAAAAAAAAAAAAAAAAAAAAAAAAAAAAAAAAAAAAAAAAAAAAAAAAAAAAAAAAAAAAAAAAAAAAAAAAAAAAAAAAAAAAAAAAAAAAAAAAAAAAAAAAAAAAAAAAAAAAAAAAAAAAAAAAAAAAAAAAAAAAAAAAAAAAAAAAAAAAAAAAAAAAAAAAAAAAAAAAAAAAAAAAAAAAAAAAAAAAAAAAAAAAAAAAAAAAAAAAAAAAAAAAAAAAAAAAAAAAAAAAAAAAAAAAAAAAAAAAAAAAAAAAAAAAAAAAAAAAAAAAAAAAAAAAAAAAAAAAAAAAAAAAAAAAAAAAAAAAAAAAAAAAAAAAAAAAAAAAAAAAAAAAAAAAAAAAAAAAAAAAAAAAAAAAAAAAAAAAAAAAAAAAAAAAAAAAAAAAAAAAAAAAAAAAAAAAAAAAAAAAAAAAAAAAAAAAAAAAAAAAAAAAAAAAAAAAAAAAAAAAAAAAAAAAAAAAAAAAAAAAAAAAAAAAAAAAAAAAAAAAAAAAAAAAAAAAAAAAAAAAAAAAAAAAAAAAAAAAAAAAAAAAAAAAAAAAAAAAAAAAAAAAAAAAAAAAAAAAAAAAAAAAAAAAAAAAAAAAAAAAAAAAAAAAAAAAAAAAAAAAAAAAAAAAAAAAAAAAAAAAAAAAAAAAAAAAAAAAAAAAAAAAAAAAAAAAAAAAAAAAAAAAAAAAAAAAAAAAAAAAAAAAAAAAAAAAAAAAAAAAAAAAAAAAAAAAAAAAAAAAAAAAAAAAAAAAAAAAAAAAAAAAAAAAAAAAAAAAAAAAAAAAAAAAAAAAAAAAAAAAAAAAAAAAAAAAAAAAAAAAAAAAAAAAAAAAAAAAAAAAAAAAAAAAAAAAAAAAAAAAAAAAAAAAAAAAAAAAAAAAAAAAAAAAAAAAAAAAAAAAAAAAAAAAAAAAAAAAAAAAAAAAAAAAAAAAAAAAAAAAAAAAAAAAAAAAAAAAAAAAAAAAAAAAAAAAAAAAAAAAAAAAAAAAAAAAAAAAAAAAAAAAAAAAAAAAAAAAAAAAAAAAAAAAAAAAAAAAAAAAAAAAAAAAAAAAAAAAAAAAAAAAAAAAAAAAAAAAAAAAAAAAAAAAAAAAAAAAAAAAAAAAAAAAAAAAAAAAAAAAAAAAAAAAAAAAAAAAAAAAAAAAAAAAAAAAAAAAAAAAAAAAAAAAAAAAAAAAAAAAAAAAAAAAAAAAAAAAAAAAAAAAAAAAAAAAAAAAAAAAAAAAAAAAAAAAAAAAAAAAAAAAAAAAAAAAAAAAAAAAAAAAAAAAAAAAAAAAAAAAAAAAAAAAAAAAAAAAAAAAAAAAAAAAAAAAAAAAAAAAAAAAAAAAAAAAAAAAAAAAAAAAAAAAAAAAAAAAAAAAAAAAAAAAAAAAAAAAAAAAAAAAAAAAAAAAAAAAAAAAAAAAAAAAAAAAAAAAAAAAAAAAAAAAAAAAAAAAAAAAAAAAAAAAAAAAAAAAAAAAAAAAAAAAAAAAAAAAAAAAAAAAAAAAAAAAAAAAAAAAAAAAAAAAAAAAAAAAAAAAAAAAAAAAAAAAAAAAAAAAAAAAAAAAAAAAAAAAAAAAAAAAAAAAAAAAAAAAAAAAAAAAAAAAAAAAAAAAAAAAAAAAAAAAAAAAAAAAAAAAAAAAAAAAAAAAAAAAAAAAAAAAAAAAAAAAAAAAAAAAAAAAAAAAAAAAAAAAAAAAAAAAAAAAAAAAAAAAAAAAAAAAAAAAAAAAAAAAAAAAAAAAAAAAAAAAAAAAAAAAAAAAAAAAAAAAAAAAAAAAAAAAAAAAAAAAAAAAAAAAAAAAAAAAAAAAAAAAAAAAAAAAAAAAAAAAAAAAAAAAAAAAAAAAAAAAAAAAAAAAAAAAAAAAAAAAAAAAAAAAAAAAAAAAAAAAAAAAAAAAAAAAAAAAAAAAAAAAAAAAAAAAAAAAAAAAAAAAAAAAAAAAAAAAAAAAAAAAAAAAAAAAAAAAAAAAAAAAAAAAAAAAAAAAAAAAAAAAAAAAAAAAAAAAAAAAAAAAAAAAAAAAAAAAAAAAAAAAAAAAAAAAAAAAAAAAAAAAAAAAAAAAAAAAAAAAAAAAAAAAAAAAAAAAAAAAAAAAAAAAAAAAAAAAAAAAAAAAAAAAAAAAAAAAAAAAAAAAAAAAAAAAAAAAAAAAAAAAAAAAAAAAAAAAAAAAAAAAAAAAAAAAAAAAAAAAAAAAAAAAAAAAAAAAAAAAAAAAAPZYQF9Y4DrWj69J5EmdHr2rYsY5NYZcF3P6ZwVeSzjNzUY20hWrBwLAoyKxMhIVEndV/oNvKtRxlyJgEvSiAQDji2g=</c2pa:manifest></metadata><defs><clipPath id="pk"><path d="M112.85 213.92L109.86 213.35L106.89 212.68L103.94 211.92L101.02 211.05L98.12 210.09L95.26 209.02L92.44 207.86L89.66 206.61L86.92 205.26L84.23 203.82L81.58 202.28L78.99 200.65L76.46 198.94L73.98 197.14L71.57 195.25L69.22 193.28L66.94 191.23L64.73 189.1L62.59 186.9L60.53 184.62L58.54 182.27L56.64 179.85L54.82 177.36L53.08 174.81L51.43 172.21L49.88 169.54L48.41 166.82L47.04 164.05L45.76 161.23L44.58 158.36L43.5 155.46L42.51 152.51L41.63 149.53L40.85 146.52L40.18 143.48L39.61 140.42L39.15 137.34L38.79 134.24L38.54 131.12L38.4 128L38.37 124.87L38.44 121.74L38.62 118.61L38.91 115.48L39.31 112.36L39.82 109.26L40.44 106.17L41.16 103.1L41.99 100.05L42.92 97.04L43.97 94.05L45.11 91.1L46.36 88.18L47.71 85.31L49.16 82.48L50.71 79.7L52.35 76.97L54.09 74.3L55.93 71.69L57.85 69.14L59.87 66.66L61.97 64.24L64.16 61.9L66.43 59.63L68.79 57.43L71.22 55.32L73.72 53.29L76.3 51.35L78.94 49.49L81.65 47.73L84.43 46.05L87.26 44.48L90.15 43L93.1 41.62L96.09 40.34L99.14 39.17L102.22 38.09L105.34 37.13L108.5 36.27L111.69 35.53L114.91 34.89L118.16 34.37L121.42 33.95L124.71 33.65L128 33.47L131.3 33.4L134.61 33.44L137.92 33.6L141.23 33.87L144.53 34.26L147.82 34.77L151.09 35.39L154.35 36.12L157.58 36.97L160.78 37.93L163.96 39L167.1 40.18L170.2 41.48L173.26 42.88L176.27 44.39L179.23 46.01L182.14 47.73L184.99 49.56L187.78 51.48L190.51 53.5L193.17 55.62L195.75 57.84L198.26 60.15L200.7 62.54L203.05 65.03L205.32 67.59L207.5 70.24L209.59 72.97L211.58 75.77A14.56 14.56 0 0 1 186.89 91.2L185.69 89.09L184.42 87.01L183.07 84.98L181.65 82.99L180.15 81.04L178.58 79.15L176.95 77.31L175.25 75.53L173.48 73.8L171.65 72.13L169.75 70.53L167.8 68.99L165.79 67.52L163.73 66.12L161.61 64.78L159.45 63.52L157.23 62.34L154.98 61.23L152.68 60.2L150.34 59.26L147.96 58.39L145.55 57.6L143.11 56.9L140.64 56.29L138.15 55.76L135.64 55.32L133.11 54.97L130.56 54.71L128 54.53L125.43 54.45L122.86 54.46L120.28 54.55L117.7 54.74L115.13 55.02L112.57 55.4L110.01 55.86L107.47 56.41L104.95 57.06L102.45 57.79L99.97 58.61L97.51 59.53L95.09 60.52L92.7 61.61L90.35 62.78L88.03 64.04L85.76 65.37L83.53 66.79L81.35 68.29L79.22 69.87L77.15 71.53L75.13 73.26L73.18 75.06L71.28 76.93L69.45 78.87L67.69 80.88L65.99 82.95L64.37 85.08L62.82 87.27L61.35 89.52L59.96 91.82L58.64 94.17L57.41 96.57L56.27 99.02L55.21 101.51L54.23 104.03L53.35 106.59L52.55 109.19L51.85 111.81L51.24 114.46L50.72 117.14L50.3 119.83L49.97 122.54L49.74 125.27L49.6 128L49.56 130.74L49.62 133.48L49.77 136.22L50.02 138.96L50.37 141.69L50.82 144.41L51.36 147.11L51.99 149.79L52.73 152.46L53.55 155.1L54.48 157.71L55.49 160.28L56.59 162.83L57.79 165.33L59.07 167.79L60.45 170.21L61.9 172.58L63.45 174.9L65.07 177.16L66.78 179.37L68.56 181.52L70.42 183.6L72.36 185.62L74.37 187.57L76.44 189.44L78.59 191.25L80.79 192.98L83.06 194.62L85.39 196.19L87.77 197.68L90.21 199.08L92.69 200.39L95.23 201.61L97.8 202.74L100.42 203.78L103.07 204.73L105.76 205.58L108.47 206.33L111.21 206.98L113.98 207.52A3.25 3.25 0 0 1 112.85 213.92Z"></path></clipPath></defs><g clip-path="url(#pk)"><path d="M128 128L107.12 276.54L100.36 275.43Z" fill="#8fd2ff"></path><path d="M128 128L101.91 275.71L95.19 274.37Z" fill="#8ed1ff"></path><path d="M128 128L96.73 274.7L90.06 273.12Z" fill="#8ed0ff"></path><path d="M128 128L91.58 273.51L84.98 271.7Z" fill="#8ecefe"></path><path d="M128 128L86.49 272.14L79.95 270.1Z" fill="#8dcdfe"></path><path d="M128 128L81.44 270.59L74.98 268.32Z" fill="#8dccfe"></path><path d="M128 128L76.45 268.86L70.07 266.36Z" fill="#8dcafe"></path><path d="M128 128L71.53 266.96L65.24 264.24Z" fill="#8cc9fe"></path><path d="M128 128L66.67 264.89L60.49 261.95Z" fill="#8cc8fe"></path><path d="M128 128L61.89 262.65L55.81 259.49Z" fill="#8cc6fd"></path><path d="M128 128L57.19 260.24L51.23 256.87Z" fill="#8bc5fd"></path><path d="M128 128L52.58 257.66L46.74 254.08Z" fill="#8bc3fd"></path><path d="M128 128L48.07 254.93L42.36 251.15Z" fill="#8ac2fd"></path><path d="M128 128L43.65 252.04L38.08 248.06Z" fill="#8ac1fd"></path><path d="M128 128L39.34 248.99L33.91 244.82Z" fill="#8abffc"></path><path d="M128 128L35.14 245.8L29.85 241.44Z" fill="#89befc"></path><path d="M128 128L31.05 242.46L25.92 237.91Z" fill="#89bdfc"></path><path d="M128 128L27.08 238.97L22.12 234.25Z" fill="#89bbfc"></path><path d="M128 128L23.24 235.35L18.45 230.46Z" fill="#88bafc"></path><path d="M128 128L19.52 231.6L14.91 226.54Z" fill="#88b9fc"></path><path d="M128 128L15.95 227.72L11.51 222.5Z" fill="#87b7fb"></path><path d="M128 128L12.51 223.71L8.26 218.34Z" fill="#87b6fb"></path><path d="M128 128L9.21 219.59L5.15 214.07Z" fill="#87b5fb"></path><path d="M128 128L6.06 215.35L2.2 209.7Z" fill="#86b3fb"></path><path d="M128 128L3.06 211.01L-0.6 205.22Z" fill="#86b2fb"></path><path d="M128 128L0.22 206.56L-3.24 200.65Z" fill="#86b1fb"></path><path d="M128 128L-2.47 202.02L-5.71 195.98Z" fill="#85affa"></path><path d="M128 128L-4.99 197.38L-8.02 191.23Z" fill="#85aefa"></path><path d="M128 128L-7.35 192.66L-10.16 186.41Z" fill="#85adfa"></path><path d="M128 128L-9.54 187.85L-12.13 181.51Z" fill="#84abfa"></path><path d="M128 128L-11.56 182.98L-13.93 176.55Z" fill="#84aafa"></path><path d="M128 128L-13.41 178.03L-15.55 171.52Z" fill="#83a8f9"></path><path d="M128 128L-15.08 173.02L-16.99 166.44Z" fill="#83a7f9"></path><path d="M128 128L-16.58 167.96L-18.25 161.32Z" fill="#83a6f9"></path><path d="M128 128L-17.9 162.85L-19.33 156.15Z" fill="#82a4f9"></path><path d="M128 128L-19.03 157.69L-20.23 150.95Z" fill="#82a3f9"></path><path d="M128 128L-19.99 152.5L-20.95 145.72Z" fill="#82a2f9"></path><path d="M128 128L-20.76 147.28L-21.48 140.46Z" fill="#81a0f8"></path><path d="M128 128L-21.34 142.03L-21.83 135.2Z" fill="#819ff8"></path><path d="M128 128L-21.74 136.77L-21.99 129.92Z" fill="#809ef8"></path><path d="M128 128L-21.96 131.49L-21.96 124.64Z" fill="#809cf8"></path><path d="M128 128L-21.99 126.21L-21.75 119.37Z" fill="#809bf8"></path><path d="M128 128L-21.83 120.93L-21.35 114.1Z" fill="#7f9af8"></path><path d="M128 128L-21.49 115.67L-20.77 108.85Z" fill="#7f98f7"></path><path d="M128 128L-20.97 110.41L-20.01 103.63Z" fill="#7f97f7"></path><path d="M128 128L-20.25 105.18L-19.06 98.44Z" fill="#7e96f7"></path><path d="M128 128L-19.36 99.98L-17.93 93.28Z" fill="#7e94f7"></path><path d="M128 128L-18.28 94.81L-16.61 88.17Z" fill="#7e93f7"></path><path d="M128 128L-17.02 89.68L-15.12 83.1Z" fill="#7d92f6"></path><path d="M128 128L-15.59 84.6L-13.45 78.09Z" fill="#7d90f6"></path><path d="M128 128L-13.97 79.58L-11.61 73.15Z" fill="#7c8ff6"></path><path d="M128 128L-12.18 74.61L-9.59 68.27Z" fill="#7c8df6"></path><path d="M128 128L-10.21 69.71L-7.41 63.46Z" fill="#7c8cf6"></path><path d="M128 128L-8.07 64.88L-5.05 58.74Z" fill="#7b8bf6"></path><path d="M128 128L-5.77 60.13L-2.53 54.1Z" fill="#7b89f5"></path><path d="M128 128L-3.3 55.47L0.15 49.55Z" fill="#7b88f5"></path><path d="M128 128L-0.66 50.89L2.99 45.1Z" fill="#7a87f5"></path><path d="M128 128L2.13 46.41L5.98 40.75Z" fill="#7a85f5"></path><path d="M128 128L5.08 42.04L9.13 36.51Z" fill="#7984f4"></path><path d="M128 128L8.18 37.76L12.42 32.39Z" fill="#7883f4"></path><path d="M128 128L11.43 33.6L15.86 28.38Z" fill="#7782f3"></path><path d="M128 128L14.82 29.56L19.43 24.49Z" fill="#7680f2"></path><path d="M128 128L18.36 25.64L23.14 20.74Z" fill="#757ff2"></path><path d="M128 128L22.03 21.84L26.98 17.11Z" fill="#757ef1"></path><path d="M128 128L25.83 18.18L30.95 13.63Z" fill="#747df1"></path><path d="M128 128L29.76 14.65L35.03 10.28Z" fill="#737bf0"></path><path d="M128 128L33.81 11.26L39.23 7.08Z" fill="#727af0"></path><path d="M128 128L37.97 8.02L43.54 4.04Z" fill="#7179ef"></path><path d="M128 128L42.25 4.93L47.96 1.14Z" fill="#7178ee"></path><path d="M128 128L46.63 1.99L52.47 -1.6Z" fill="#7076ee"></path><path d="M128 128L51.12 -0.8L57.08 -4.17Z" fill="#6f75ed"></path><path d="M128 128L55.7 -3.42L61.77 -6.59Z" fill="#6e74ed"></path><path d="M128 128L60.37 -5.89L66.55 -8.84Z" fill="#6d73ec"></path><path d="M128 128L65.12 -8.18L71.4 -10.91Z" fill="#6c71eb"></path><path d="M128 128L69.95 -10.31L76.33 -12.82Z" fill="#6c70eb"></path><path d="M128 128L74.86 -12.27L81.32 -14.55Z" fill="#6b6fea"></path><path d="M128 128L79.83 -14.05L86.36 -16.1Z" fill="#6a6eea"></path><path d="M128 128L84.85 -15.66L91.46 -17.48Z" fill="#696de9"></path><path d="M128 128L89.94 -17.09L96.6 -18.68Z" fill="#686be9"></path><path d="M128 128L95.07 -18.34L101.78 -19.69Z" fill="#676ae8"></path><path d="M128 128L100.24 -19.41L106.99 -20.52Z" fill="#6769e7"></path><path d="M128 128L105.44 -20.29L112.23 -21.17Z" fill="#6668e7"></path><path d="M128 128L110.67 -21L117.49 -21.63Z" fill="#6566e6"></path><path d="M128 128L115.93 -21.51L122.77 -21.91Z" fill="#6465e6"></path><path d="M128 128L121.2 -21.85L128.04 -22Z" fill="#6364e5"></path><path d="M128 128L126.47 -21.99L133.32 -21.91Z" fill="#6363e5"></path><path d="M128 128L131.75 -21.95L138.59 -21.63Z" fill="#6261e4"></path><path d="M128 128L137.03 -21.73L143.85 -21.16Z" fill="#6160e3"></path><path d="M128 128L142.29 -21.32L149.09 -20.51Z" fill="#605fe3"></path><path d="M128 128L147.54 -20.72L154.31 -19.68Z" fill="#5f5ee2"></path><path d="M128 128L152.76 -19.94L159.49 -18.66Z" fill="#5e5ce2"></path><path d="M128 128L157.95 -18.98L164.63 -17.46Z" fill="#5e5be1"></path><path d="M128 128L163.1 -17.84L169.72 -16.08Z" fill="#5d5ae0"></path><path d="M128 128L168.21 -16.51L174.77 -14.52Z" fill="#5c59e0"></path><path d="M128 128L173.27 -15L179.75 -12.79Z" fill="#5b57df"></path><path d="M128 128L178.28 -13.32L184.68 -10.88Z" fill="#5a56df"></path><path d="M128 128L183.22 -11.47L189.53 -8.8Z" fill="#5955de"></path><path d="M128 128L188.09 -9.44L194.3 -6.55Z" fill="#5954de"></path><path d="M128 128L192.89 -7.24L199 -4.13Z" fill="#5852dd"></path><path d="M128 128L197.61 -4.87L203.6 -1.55Z" fill="#5751dc"></path><path d="M128 128L202.24 -2.34L208.12 1.19Z" fill="#5650dc"></path><path d="M128 128L206.78 0.36L212.53 4.09Z" fill="#554fdb"></path><path d="M128 128L211.23 3.21L216.84 7.14Z" fill="#554ddb"></path><path d="M128 128L215.57 6.21L221.04 10.34Z" fill="#544cda"></path><path d="M128 128L219.8 9.37L225.12 13.68Z" fill="#534bda"></path><path d="M128 128L223.92 12.67L229.08 17.17Z" fill="#524ad9"></path><path d="M128 128L227.91 16.12L232.92 20.8Z" fill="#5148d8"></path><path d="M128 128L231.79 19.71L236.63 24.56Z" fill="#5047d8"></path><path d="M128 128L235.54 23.43L240.2 28.44Z" fill="#5046d7"></path><path d="M128 128L239.15 27.27L243.63 32.45Z" fill="#4f45d7"></path><path d="M128 128L242.63 31.25L246.92 36.58Z" fill="#4e43d6"></path><path d="M128 128L245.96 35.34L250.07 40.82Z" fill="#4d42d5"></path><path d="M128 128L249.15 39.55L253.06 45.17Z" fill="#4c41d5"></path><path d="M128 128L252.18 43.87L255.9 49.63Z" fill="#4b40d4"></path><path d="M128 128L255.07 48.29L258.57 54.17Z" fill="#4b3fd4"></path><path d="M128 128L257.79 52.81L261.09 58.82Z" fill="#4b3fd4"></path><path d="M128 128L260.36 57.43L263.44 63.54Z" fill="#4b3fd4"></path><path d="M128 128L262.76 62.13L265.63 68.35Z" fill="#4b3fd4"></path><path d="M128 128L265 66.91L267.64 73.23Z" fill="#4b3fd4"></path><path d="M128 128L267.06 71.77L269.48 78.18Z" fill="#4b3fd4"></path></g><circle cx="199.24" cy="83.49" r="14.56" fill="#241f3d"></circle><circle class="pl-core" cx="128" cy="128" r="33.6" fill="#241f3d"></circle></svg>