<svg xmlns="http://www.w3.org/2000/svg" viewBox="13.51 8.54 874.76 230.26" width="874.76" height="230.26" xmlns:c2pa="http://c2pa.org/manifest"><metadata><c2pa:manifest>AAAWgmp1bWIAAAAeanVtZGMycGEAEQAQgAAAqgA4m3EDYzJwYQAAABZcanVtYgAAAEdqdW1kYzJtYQARABCAAACqADibcQN1cm46YzJwYTo3YjUyMmU1Ni05MDlhLTQ3ZTYtOTk2Yi1lZGU3Mzk0ZmFmYWUAAAADl2p1bWIAAAApanVtZGMyYXMAEQAQgAAAqgA4m3EDYzJwYS5hc3NlcnRpb25zAAAAALxqdW1iAAAARGp1bWRjYm9yABEAEIAAAKoAOJtxE2MycGEuaW5ncmVkaWVudC52MwAAAAAYYzJzaI2CqOWRl1s5xI2nnQiR0BcAAABwY2JvcqNpZGM6Zm9ybWF0bWltYWdlL3N2Zyt4bWxqaW5zdGFuY2VJRHgseG1wOmlpZDoyZjU1M2IyNi0zNGU5LTRkMTYtYjFjNy01Y2ZlODdhNjRjOTRscmVsYXRpb25zaGlwaHBhcmVudE9mAAAB4mp1bWIAAABBanVtZGNib3IAEQAQgAAAqgA4m3ETYzJwYS5hY3Rpb25zLnYyAAAAABhjMnNoYARS2SZbnRSN4Y7exmwxxwAAAZljYm9yomdhY3Rpb25zgqJmYWN0aW9ua2MycGEub3BlbmVkanBhcmFtZXRlcnOha2luZ3JlZGllbnRzgaJjdXJseC1zZWxmI2p1bWJmPWMycGEuYXNzZXJ0aW9ucy9jMnBhLmluZ3JlZGllbnQudjNkaGFzaFggf2xsJ0JwAPEXZZlxtT6rqCzimDRLaLwLU2wBuDm32cykZmFjdGlvbngdY29tLmFudGhyb3BpYy5jbGF1ZGUucHJvdmlkZWRqcGFyYW1ldGVyc6F4H2NvbS5hbnRocm9waWMub3JpZ2luLWNvbmZpZGVuY2VndW5rbm93bmtkZXNjcmlwdGlvbnhmQ2xhdWRlIHByb3ZpZGVkIHRoaXMgZmlsZSBhdCB0aGUgcmVxdWVzdCBvZiBhIHVzZXIgYW5kIG1heSBoYXZlIGNyZWF0ZWQgb3IgbW9kaWZpZWQgdGhlIGZpbGUgY29udGVudHMubXNvZnR3YXJlQWdlbnShZG5hbWVmQ2xhdWRlcmFsbEFjdGlvbnNJbmNsdWRlZPUAAADIanVtYgAAAEBqdW1kY2JvcgARABCAAACqADibcRNjMnBhLmhhc2guZGF0YQAAAAAYYzJzaGTfk7XV13IN6oP9O5QwR0EAAACAY2JvcqVjYWxnZnNoYTI1NmNwYWRNAAAAAAAAAAAAAAAAAGRoYXNoWCBj0boCTvLzIaXjD3ezqlk/7RRspDyXzyWJVj+Aq6QFK2RuYW1lbmp1bWJmIG1hbmlmZXN0amV4Y2x1c2lvbnOBomVzdGFydBipZmxlbmd0aBkeBAAAAj5qdW1iAAAAJ2p1bWRjMmNsABEAEIAAAKoAOJtxA2MycGEuY2xhaW0udjIAAAACD2Nib3KlY2FsZ2ZzaGEyNTZpc2lnbmF0dXJleE1zZWxmI2p1bWJmPS9jMnBhL3VybjpjMnBhOjdiNTIyZTU2LTkwOWEtNDdlNi05OTZiLWVkZTczOTRmYWZhZS9jMnBhLnNpZ25hdHVyZWppbnN0YW5jZUlEeCx4bXA6aWlkOjA4YzAzYzdkLWNlNmQtNDMyOC04ODQ1LTc0YmQwOTFjM2MwZXJjcmVhdGVkX2Fzc2VydGlvbnODomN1cmx4LXNlbGYjanVtYmY9YzJwYS5hc3NlcnRpb25zL2MycGEuaW5ncmVkaWVudC52M2RoYXNoWCB/bGwnQnAA8RdlmXG1PquoLOKYNEtovAtTbAG4ObfZzKJjdXJseCpzZWxmI2p1bWJmPWMycGEuYXNzZXJ0aW9ucy9jMnBhLmFjdGlvbnMudjJkaGFzaFggd/0c8g7sK20xIDOkD1dUDY0mvaU6h9C8Kd8BU6EUtWOiY3VybHgpc2VsZiNqdW1iZj1jMnBhLmFzc2VydGlvbnMvYzJwYS5oYXNoLmRhdGFkaGFzaFggsu5iZk0DzgP6PLELlKyRjeUZwVfhcdGjRd1Y+ID2lNJ0Y2xhaW1fZ2VuZXJhdG9yX2luZm+jZG5hbWVvQW50aHJvcGljIEZpbGVzZ3ZlcnNpb25lMS4wLjBrc3BlY1ZlcnNpb25lMi40LjAAABA4anVtYgAAAChqdW1kYzJjcwARABCAAACqADibcQNjMnBhLnNpZ25hdHVyZQAAABAIY2JvctKEWQISogEmGCFZAgowggIGMIIBjaADAgECAhRA5aAK7sI50L64g/oGQgU9Z1UTADAKBggqhkjOPQQDAzBJMRcwFQYDVQQKEw5BbnRocm9waWMsIFBCQzEuMCwGA1UEAxMlQW50aHJvcGljIENvbnRlbnQgQ3JlZGVudGlhbHMgUm9vdCBDQTAeFw0yNjA4MDcxODQzNTZaFw0yODA4MDYxOTQzNTZaMEQxFzAVBgNVBAoTDkFudGhyb3BpYywgUEJDMSkwJwYDVQQDEyBBbnRocm9waWMgQ2xhdWRlIENvbnRlbnQgU2lnbmluZzBZMBMGByqGSM49AgEGCCqGSM49AwEHA0IABJh6CmvLUBgFFNU0vUKlOVtE6djd17L5SuwX0LemFisBM3dkd/3cyjxFA3Qo5S46fX0/ihY0VZ7mfb9KF703t5OjWDBWMA4GA1UdDwEB/wQEAwIHgDAVBgNVHSUEDjAMBgorBgEEAYPoXgIBMAwGA1UdEwEB/wQCMAAwHwYDVR0jBBgwFoAUzlHiBIFOZFsj+OPEz5o+nMHXXMIwCgYIKoZIzj0EAwMDZwAwZAIwMXMdFJ4BetLLVY7ORuE9noqbbAZOZn/aArXyTwFAZfKrPzxF2vPoJNf1+UCdg1XGAjBwX1zd9WGqYkqmL5SFqw1QySjr1zJfpJM9+1rdDwSPLMOPOjKuiXjoU/pUUeG9RwmhY3BhZFkNngAAAAAAAAAAAAAAAAAAAAAAAAAAAAAAAAAAAAAAAAAAAAAAAAAAAAAAAAAAAAAAAAAAAAAAAAAAAAAAAAAAAAAAAAAAAAAAAAAAAAAAAAAAAAAAAAAAAAAAAAAAAAAAAAAAAAAAAAAAAAAAAAAAAAAAAAAAAAAAAAAAAAAAAAAAAAAAAAAAAAAAAAAAAAAAAAAAAAAAAAAAAAAAAAAAAAAAAAAAAAAAAAAAAAAAAAAAAAAAAAAAAAAAAAAAAAAAAAAAAAAAAAAAAAAAAAAAAAAAAAAAAAAAAAAAAAAAAAAAAAAAAAAAAAAAAAAAAAAAAAAAAAAAAAAAAAAAAAAAAAAAAAAAAAAAAAAAAAAAAAAAAAAAAAAAAAAAAAAAAAAAAAAAAAAAAAAAAAAAAAAAAAAAAAAAAAAAAAAAAAAAAAAAAAAAAAAAAAAAAAAAAAAAAAAAAAAAAAAAAAAAAAAAAAAAAAAAAAAAAAAAAAAAAAAAAAAAAAAAAAAAAAAAAAAAAAAAAAAAAAAAAAAAAAAAAAAAAAAAAAAAAAAAAAAAAAAAAAAAAAAAAAAAAAAAAAAAAAAAAAAAAAAAAAAAAAAAAAAAAAAAAAAAAAAAAAAAAAAAAAAAAAAAAAAAAAAAAAAAAAAAAAAAAAAAAAAAAAAAAAAAAAAAAAAAAAAAAAAAAAAAAAAAAAAAAAAAAAAAAAAAAAAAAAAAAAAAAAAAAAAAAAAAAAAAAAAAAAAAAAAAAAAAAAAAAAAAAAAAAAAAAAAAAAAAAAAAAAAAAAAAAAAAAAAAAAAAAAAAAAAAAAAAAAAAAAAAAAAAAAAAAAAAAAAAAAAAAAAAAAAAAAAAAAAAAAAAAAAAAAAAAAAAAAAAAAAAAAAAAAAAAAAAAAAAAAAAAAAAAAAAAAAAAAAAAAAAAAAAAAAAAAAAAAAAAAAAAAAAAAAAAAAAAAAAAAAAAAAAAAAAAAAAAAAAAAAAAAAAAAAAAAAAAAAAAAAAAAAAAAAAAAAAAAAAAAAAAAAAAAAAAAAAAAAAAAAAAAAAAAAAAAAAAAAAAAAAAAAAAAAAAAAAAAAAAAAAAAAAAAAAAAAAAAAAAAAAAAAAAAAAAAAAAAAAAAAAAAAAAAAAAAAAAAAAAAAAAAAAAAAAAAAAAAAAAAAAAAAAAAAAAAAAAAAAAAAAAAAAAAAAAAAAAAAAAAAAAAAAAAAAAAAAAAAAAAAAAAAAAAAAAAAAAAAAAAAAAAAAAAAAAAAAAAAAAAAAAAAAAAAAAAAAAAAAAAAAAAAAAAAAAAAAAAAAAAAAAAAAAAAAAAAAAAAAAAAAAAAAAAAAAAAAAAAAAAAAAAAAAAAAAAAAAAAAAAAAAAAAAAAAAAAAAAAAAAAAAAAAAAAAAAAAAAAAAAAAAAAAAAAAAAAAAAAAAAAAAAAAAAAAAAAAAAAAAAAAAAAAAAAAAAAAAAAAAAAAAAAAAAAAAAAAAAAAAAAAAAAAAAAAAAAAAAAAAAAAAAAAAAAAAAAAAAAAAAAAAAAAAAAAAAAAAAAAAAAAAAAAAAAAAAAAAAAAAAAAAAAAAAAAAAAAAAAAAAAAAAAAAAAAAAAAAAAAAAAAAAAAAAAAAAAAAAAAAAAAAAAAAAAAAAAAAAAAAAAAAAAAAAAAAAAAAAAAAAAAAAAAAAAAAAAAAAAAAAAAAAAAAAAAAAAAAAAAAAAAAAAAAAAAAAAAAAAAAAAAAAAAAAAAAAAAAAAAAAAAAAAAAAAAAAAAAAAAAAAAAAAAAAAAAAAAAAAAAAAAAAAAAAAAAAAAAAAAAAAAAAAAAAAAAAAAAAAAAAAAAAAAAAAAAAAAAAAAAAAAAAAAAAAAAAAAAAAAAAAAAAAAAAAAAAAAAAAAAAAAAAAAAAAAAAAAAAAAAAAAAAAAAAAAAAAAAAAAAAAAAAAAAAAAAAAAAAAAAAAAAAAAAAAAAAAAAAAAAAAAAAAAAAAAAAAAAAAAAAAAAAAAAAAAAAAAAAAAAAAAAAAAAAAAAAAAAAAAAAAAAAAAAAAAAAAAAAAAAAAAAAAAAAAAAAAAAAAAAAAAAAAAAAAAAAAAAAAAAAAAAAAAAAAAAAAAAAAAAAAAAAAAAAAAAAAAAAAAAAAAAAAAAAAAAAAAAAAAAAAAAAAAAAAAAAAAAAAAAAAAAAAAAAAAAAAAAAAAAAAAAAAAAAAAAAAAAAAAAAAAAAAAAAAAAAAAAAAAAAAAAAAAAAAAAAAAAAAAAAAAAAAAAAAAAAAAAAAAAAAAAAAAAAAAAAAAAAAAAAAAAAAAAAAAAAAAAAAAAAAAAAAAAAAAAAAAAAAAAAAAAAAAAAAAAAAAAAAAAAAAAAAAAAAAAAAAAAAAAAAAAAAAAAAAAAAAAAAAAAAAAAAAAAAAAAAAAAAAAAAAAAAAAAAAAAAAAAAAAAAAAAAAAAAAAAAAAAAAAAAAAAAAAAAAAAAAAAAAAAAAAAAAAAAAAAAAAAAAAAAAAAAAAAAAAAAAAAAAAAAAAAAAAAAAAAAAAAAAAAAAAAAAAAAAAAAAAAAAAAAAAAAAAAAAAAAAAAAAAAAAAAAAAAAAAAAAAAAAAAAAAAAAAAAAAAAAAAAAAAAAAAAAAAAAAAAAAAAAAAAAAAAAAAAAAAAAAAAAAAAAAAAAAAAAAAAAAAAAAAAAAAAAAAAAAAAAAAAAAAAAAAAAAAAAAAAAAAAAAAAAAAAAAAAAAAAAAAAAAAAAAAAAAAAAAAAAAAAAAAAAAAAAAAAAAAAAAAAAAAAAAAAAAAAAAAAAAAAAAAAAAAAAAAAAAAAAAAAAAAAAAAAAAAAAAAAAAAAAAAAAAAAAAAAAAAAAAAAAAAAAAAAAAAAAAAAAAAAAAAAAAAAAAAAAAAAAAAAAAAAAAAAAAAAAAAAAAAAAAAAAAAAAAAAAAAAAAAAAAAAAAAAAAAAAAAAAAAAAAAAAAAAAAAAAAAAAAAAAAAAAAAAAAAAAAAAAAAAAAAAAAAAAAAAAAAAAAAAAAAAAAAAAAAAAAAAAAAAAAAAAAAAAAAAAAAAAAAAAAAAAAAAAAAAAAAAAAAAAAAAAAAAAAAAAAAAAAAAAAAAAAAAAAAAAAAAAAAAAAAAAAAAAAAAAAAAAAAAAAAAAAAAAAAAAAAAAAAAAAAAAAAAAAAAAAAAAAAAAAAAAAAAAAAAAAAAAAAAAAAAAAAAAAAAAAAAAAAAAAAAAAAAAAAAAAAAAAAAAAAAAAAAAAAAAAAAAAAAAAAAAAAAAAAAAAAAAAAAAAAAAAAAAAAAAAAAAAAAAAAAAAAAAAAAAAAAAAAAAAAAAAAAAAAAAAAAAAAAAAAAAAAAAAAAAAAAAAAAAAAAAAAAAAAAAAAAAAAAAAAAAAAAAAAAAAAAAAAAAAAAAAAAAAAAAAAAAAAAAAAAAAAAAAAAAAAAAAAAAAAAAAAAAAAAAAAAAAAAAAAAAAAAAAAAAAAAAAAAAAAAAAAAAAAAAAAAAAAAAAAAAAAAAAAAAAAAAAAAAAAAAAAAAAAAAAAAAAAAAAAAAAAAAAAAAAAAAAAAAAAAAAAAAAAAAAAAAAAAAAAAAAAAAAAAAAAAAAAAAAAAAAAAAAAAAAAAAAAAAAAAAAAAAAAAAAAAAAAAAAAAAAAAAAAAAAAAAAAAAAAAAAAAAAAAAAAAAAAAAAAAAAAAAAAAAAAAAAAAAAAAAAAAAAAAAAAAAAAAAAAAAAAAAAAAAAAAAAAAAAAAAAAAAAAAAAAAAAAAAAAAAAAAAAAAAAAAAAAAAAAAAAAAAAAAAAAAAAAAAAAAAAAAAAAAAAAAAAAAAAAAAAAAAAAAAAAAAAAAAAAAAAAAAAAAAAAAAAAAAAAAAAAAAAAAAAAAAAAAAAAAAAAAAAAAAAAAAAAAAAAAAAAAAAAAAAAAAAAAAAAAAAAAAAAAAAAAAAAAAAAAAAAAAAAAAAAAAAAAAAAAAAAAAAAAAAAAAAAAAAAAAAAAAAAAAAAAAAAAAAAAAAAAAAAAAAAAAAAAAAAAAAAAAAAAAAAAAAAAAAAAAAAAAAAAAAAAAAAAAAAAAAAAAAAAAAAAAAAAAAAAAAAAAAAAAAAAAAAAAAAAAAAAAAAAAAAAAAAAAAAAAAAAAAAAAAAAAAAAAAAAAAAAAAAAAAAAAAAAAAAAAAAAAAAAAAAAAAAAAAAAAAAAAAAAAAAAAAAAAAAAAAAAAAAAAAAAAAAAAAAAAAAAAAAAAAAAAAAAAAAAAAAAAAAAAAAAAAAAAAAAAAAAAAAAAAAAAAAAAAAAAAAAAAAAAAAAAAAAAAAAAAAAAAAAAAAAAAAAAAAAAAAAAAAAAAAAAAAAAAAAAAAAAAAAAAAAAAAAAAAAAAAAAAAAAAAAAAAAAAAAAAAAAAAAAAAAAAAAAAAAAAAAAAAAAAAAAAAAAAAAAAAAAAAAAAAAAAAAAAAAAAAAAAAAAAAAAAAAAAAAAAAAAAAAAAAAAAAAAAAAAAAAAAAAAAAAAAAAAAAAAAAAAAAAAAAAAAAAAAAAAAAAAAAAAAAAAAAAAAAAAAAAAAAAAAAAAAAAAAAAAAAAAAAAAAAAAAAAAAAAAAAAAAAAAAAAAAAAAAAAAAAAAAAAAAAAAAAAAAAAAAAAAAAAAAAAAAAAAAAAAAAAAAAAAAAAAAAAAAAAAAAAAAAAAAAAAAPZYQM9bL+7FYHuc14O7Fb0An9i/6vB3dEATxpjdbLixNmejYXTfgm9Q1dFKgm3YhC8pG8X64jumnxcj8kZo9nB66t4=</c2pa:manifest></metadata><path d="M112.85 213.92L109.86 213.35L106.89 212.68L103.94 211.92L101.02 211.05L98.12 210.09L95.26 209.02L92.44 207.86L89.66 206.61L86.92 205.26L84.23 203.82L81.58 202.28L78.99 200.65L76.46 198.94L73.98 197.14L71.57 195.25L69.22 193.28L66.94 191.23L64.73 189.1L62.59 186.9L60.53 184.62L58.54 182.27L56.64 179.85L54.82 177.36L53.08 174.81L51.43 172.21L49.88 169.54L48.41 166.82L47.04 164.05L45.76 161.23L44.58 158.36L43.5 155.46L42.51 152.51L41.63 149.53L40.85 146.52L40.18 143.48L39.61 140.42L39.15 137.34L38.79 134.24L38.54 131.12L38.4 128L38.37 124.87L38.44 121.74L38.62 118.61L38.91 115.48L39.31 112.36L39.82 109.26L40.44 106.17L41.16 103.1L41.99 100.05L42.92 97.04L43.97 94.05L45.11 91.1L46.36 88.18L47.71 85.31L49.16 82.48L50.71 79.7L52.35 76.97L54.09 74.3L55.93 71.69L57.85 69.14L59.87 66.66L61.97 64.24L64.16 61.9L66.43 59.63L68.79 57.43L71.22 55.32L73.72 53.29L76.3 51.35L78.94 49.49L81.65 47.73L84.43 46.05L87.26 44.48L90.15 43L93.1 41.62L96.09 40.34L99.14 39.17L102.22 38.09L105.34 37.13L108.5 36.27L111.69 35.53L114.91 34.89L118.16 34.37L121.42 33.95L124.71 33.65L128 33.47L131.3 33.4L134.61 33.44L137.92 33.6L141.23 33.87L144.53 34.26L147.82 34.77L151.09 35.39L154.35 36.12L157.58 36.97L160.78 37.93L163.96 39L167.1 40.18L170.2 41.48L173.26 42.88L176.27 44.39L179.23 46.01L182.14 47.73L184.99 49.56L187.78 51.48L190.51 53.5L193.17 55.62L195.75 57.84L198.26 60.15L200.7 62.54L203.05 65.03L205.32 67.59L207.5 70.24L209.59 72.97L211.58 75.77A14.56 14.56 0 0 1 186.89 91.2L185.69 89.09L184.42 87.01L183.07 84.98L181.65 82.99L180.15 81.04L178.58 79.15L176.95 77.31L175.25 75.53L173.48 73.8L171.65 72.13L169.75 70.53L167.8 68.99L165.79 67.52L163.73 66.12L161.61 64.78L159.45 63.52L157.23 62.34L154.98 61.23L152.68 60.2L150.34 59.26L147.96 58.39L145.55 57.6L143.11 56.9L140.64 56.29L138.15 55.76L135.64 55.32L133.11 54.97L130.56 54.71L128 54.53L125.43 54.45L122.86 54.46L120.28 54.55L117.7 54.74L115.13 55.02L112.57 55.4L110.01 55.86L107.47 56.41L104.95 57.06L102.45 57.79L99.97 58.61L97.51 59.53L95.09 60.52L92.7 61.61L90.35 62.78L88.03 64.04L85.76 65.37L83.53 66.79L81.35 68.29L79.22 69.87L77.15 71.53L75.13 73.26L73.18 75.06L71.28 76.93L69.45 78.87L67.69 80.88L65.99 82.95L64.37 85.08L62.82 87.27L61.35 89.52L59.96 91.82L58.64 94.17L57.41 96.57L56.27 99.02L55.21 101.51L54.23 104.03L53.35 106.59L52.55 109.19L51.85 111.81L51.24 114.46L50.72 117.14L50.3 119.83L49.97 122.54L49.74 125.27L49.6 128L49.56 130.74L49.62 133.48L49.77 136.22L50.02 138.96L50.37 141.69L50.82 144.41L51.36 147.11L51.99 149.79L52.73 152.46L53.55 155.1L54.48 157.71L55.49 160.28L56.59 162.83L57.79 165.33L59.07 167.79L60.45 170.21L61.9 172.58L63.45 174.9L65.07 177.16L66.78 179.37L68.56 181.52L70.42 183.6L72.36 185.62L74.37 187.57L76.44 189.44L78.59 191.25L80.79 192.98L83.06 194.62L85.39 196.19L87.77 197.68L90.21 199.08L92.69 200.39L95.23 201.61L97.8 202.74L100.42 203.78L103.07 204.73L105.76 205.58L108.47 206.33L111.21 206.98L113.98 207.52A3.25 3.25 0 0 1 112.85 213.92Z" fill="#e9edf7"></path><circle cx="199.24" cy="83.49" r="14.56" fill="#e9edf7"></circle><circle class="pl-core" cx="128" cy="128" r="33.6" fill="#e9edf7"></circle><g fill="#e9edf7"><path transform="translate(274.29 171.46) scale(0.12 -0.12)" d="M54 0L54 700L311 700Q395 700 450 672Q505 644 532 595.5Q559 547 559 486Q559 429 532.5 380.5Q506 332 451.5 302Q397 272 311 272L179 272L179 0ZM179 374L304 374Q371 374 401.5 404Q432 434 432 486Q432 539 401.5 568.5Q371 598 304 598L179 598Z"></path><path transform="translate(377.22 171.46) scale(0.12 -0.12)" d="M315 -12Q238 -12 176 18.5Q114 49 77.5 111Q41 173 41 268L41 700L166 700L166 267Q166 184 206.5 143.5Q247 103 317 103Q387 103 427.5 143.5Q468 184 468 267L468 700L593 700L593 268Q593 173 555.5 111Q518 49 454.5 18.5Q391 -12 315 -12Z"></path><path transform="translate(485.74 171.46) scale(0.12 -0.12)" d="M54 0L54 700L179 700L179 98L490 98L490 0Z"></path><path transform="translate(575.63 171.46) scale(0.12 -0.12)" d="M309 -12Q259 -12 211 1.5Q163 15 123.5 44Q84 73 58 119.5Q32 166 27 231L143 231Q151 179 176.5 149.5Q202 120 238 107.5Q274 95 311 95Q350 95 381.5 107.5Q413 120 431.5 143.5Q450 167 450 198Q450 230 432 255Q414 280 357 291L236 313Q151 329 102.5 381Q54 433 54 505Q54 570 87.5 616.5Q121 663 176.5 687.5Q232 712 299 712Q369 712 425 688Q481 664 516 615Q551 566 557 489L440 489Q433 534 412.5 559Q392 584 363 594.5Q334 605 302 605Q272 605 241.5 595.5Q211 586 191 565Q171 544 171 508Q171 476 194.5 452.5Q218 429 268 420L380 399Q468 383 517.5 336Q567 289 567 202Q567 150 545 110Q523 70 486 43Q449 16 403 2Q357 -12 309 -12Z"></path><path transform="translate(677.69 171.46) scale(0.12 -0.12)" d="M11 0L267 700L407 700L663 0L531 0L311 630L363 630L142 0ZM129 163L163 261L511 261L545 163Z"></path><path transform="translate(791.17 171.46) scale(0.12 -0.12)" d="M54 0L54 700L344 700Q429 700 483.5 672Q538 644 564.5 595Q591 546 591 485Q591 436 569.5 394Q548 352 510 324Q551 298 571.5 256.5Q592 215 595 160L603 0L480 0L470 157Q468 197 455.5 222Q443 247 416.5 259Q390 271 344 271L179 271L179 0ZM179 372L336 372Q403 372 433.5 403Q464 434 464 485Q464 538 434 568Q404 598 336 598L179 598Z"></path></g></svg>